<?xml version="1.0" encoding="UTF-8" standalone="no"?>
<svg
   xmlns:dc="http://purl.org/dc/elements/1.1/"
   xmlns:cc="http://creativecommons.org/ns#"
   xmlns:rdf="http://www.w3.org/1999/02/22-rdf-syntax-ns#"
   xmlns:svg="http://www.w3.org/2000/svg"
   xmlns="http://www.w3.org/2000/svg"
   xmlns:sodipodi="http://sodipodi.sourceforge.net/DTD/sodipodi-0.dtd"
   xmlns:inkscape="http://www.inkscape.org/namespaces/inkscape"
   viewBox="0 0 487.15038 211.80468"
   version="1.1"
   id="svg54"
   sodipodi:docname="Recurso 1.svg"
   width="487.15039"
   height="211.80469"
   inkscape:version="0.92.3 (2405546, 2018-03-11)">
  <metadata
     id="metadata58">
    <rdf:RDF>
      <cc:Work
         rdf:about="">
        <dc:format>image/svg+xml</dc:format>
        <dc:type
           rdf:resource="http://purl.org/dc/dcmitype/StillImage" />
      </cc:Work>
    </rdf:RDF>
  </metadata>
  <sodipodi:namedview
     pagecolor="#ffffff"
     bordercolor="#666666"
     borderopacity="1"
     objecttolerance="10"
     gridtolerance="10"
     guidetolerance="10"
     inkscape:pageopacity="0"
     inkscape:pageshadow="2"
     inkscape:window-width="1920"
     inkscape:window-height="1017"
     id="namedview56"
     showgrid="false"
     inkscape:zoom="2"
     inkscape:cx="261.80991"
     inkscape:cy="85.62592"
     inkscape:window-x="-8"
     inkscape:window-y="-8"
     inkscape:window-maximized="1"
     inkscape:current-layer="svg54" />
  <defs
     id="defs4">
    <style
       id="style2">.cls-1{fill:#fff;}</style>
  </defs>
  <title
     id="title6">Recurso 1</title>
  <path
     style="fill:#ffffff;fill-opacity:1;stroke:none;stroke-width:1.43456423;stroke-linecap:butt;stroke-linejoin:miter;stroke-miterlimit:4;stroke-dasharray:none;stroke-dashoffset:0;stroke-opacity:1;paint-order:markers stroke fill"
     d="M 0,0 V 211.80469 H 487.15039 V 0 Z m 249.38672,13.962891 a 35,35 0 0 1 0.002,0 35,35 0 0 1 2.01563,0.02148 c 3.6,0.16 7.21031,-0.0012 10.82031,0.04883 7.51,0.17 14.99953,0.219453 22.51953,0.689453 10.32,0.66 20.62992,1.580782 30.91992,2.550782 3.28,0.31 6.51149,1.150234 9.77149,1.740234 v 0.830078 a 34.56,34.56 0 0 1 -3.81055,0 149.61,149.61 0 0 0 -21.07031,-0.720703 c -6.62,0.21 -13.26039,-0.68 -19.90039,-1 -2.76,-0.13 -5.51953,-0.05914 -8.26953,-0.119141 -9.42,-0.2 -18.84977,-0.360937 -28.25977,-0.710937 -1.72,-0.06 -3.39984,-1.000469 -5.08984,-1.480469 l 0.0391,-0.09961 -0.0898,0.09961 -1,-0.339844 c -1.55001,0.76 -2.99946,1.921094 -3.43946,1.621094 -1.62,-1.19 -2.24953,0.859219 -3.26953,0.699219 a 17.7,17.7 0 0 1 -3.58984,-1.378907 l -1.22071,0.689454 -0.24023,0.269531 0.21094,-0.289063 1.17968,-0.759765 c 3.76,-1.35 7.53899,-2.231328 11.45899,-0.611328 a 35,35 0 0 1 10.3125,-1.75 z m -19.40234,2.611328 -0.19922,0.08008 0.19922,0.128906 z m -13.14844,0.503906 c 1.16357,0.0292 2.31836,0.319922 3.31836,1.544922 l -2.68946,2.070312 2.7793,0.699219 v 0.691406 c -7.8,0.12 -15.64016,-0.880625 -23.41016,0.359375 -7.77,1.24 -15.72882,2.35 -23.54882,3.5 0.26,-3.09 4.6192,-5.410547 8.44922,-4.310547 l 0.4414,0.259766 -0.0918,-0.648437 a 188.17,188.17 0 0 1 32.68164,-4.080079 c 0.67125,-0.02625 1.37217,-0.103457 2.07032,-0.08594 z m 113.80468,2.083984 c 2.25845,0.0047 4.47461,1.001407 6.72461,0.941407 -0.06,0.33 -0.11039,0.660234 -0.15039,0.990234 l -8.90039,-0.720703 0.0508,-0.810547 c 0.765,-0.295 1.52258,-0.401953 2.27539,-0.400391 z m -100.08593,1.560547 0.12109,0.810547 -7.07031,0.349609 -0.0508,-0.660156 z m 109.74023,0.04102 c 0.06,-0.02 0.15047,0.05961 0.23047,0.09961 l -0.13086,0.189453 -0.23047,-0.06836 c 0,-0.08 0.0709,-0.200703 0.13086,-0.220703 z m -80.46094,1.839844 -0.11914,0.380859 -0.11914,-0.300781 z m 22.78907,2.845703 c 7.14609,-0.04687 14.1875,1.284765 21.3125,1.884765 9.8,0.82 19.63992,1.138829 29.41992,2.048828 14.2,1.34 28.52867,1.000547 42.63867,3.560547 6.53,1.19 13.24984,1.289922 19.83984,2.169922 5.85,0.78 11.64094,1.999219 17.46094,2.949219 a 11.74,11.74 0 0 1 4.14063,1.240234 l -51.16993,-3.548828 c 2.54001,2.06 17.39954,4 26.76954,4.5 8.9,0.52 17.74914,1.809766 26.61914,2.759766 v 0.708984 c -1.76,-0.11 -3.5293,-0.170078 -5.2793,-0.330078 -9.05,-0.8 -18.09063,-1.689453 -27.14062,-2.439453 -4.07,-0.34 -8.16001,-0.589844 -12.25,-0.589844 -2.16001,0 -4.30852,0.890157 -6.47852,0.910157 a 97.44,97.44 0 0 1 -10.0918,-0.539063 c -5.25,-0.49 -10.48828,-1.141172 -15.73828,-1.701172 -5.67333,-0.593333 -11.34,-1.173568 -17,-1.740234 a 4.55,4.55 0 0 0 -1.26172,-0.109375 61.17,61.17 0 0 0 -8.51953,2.160156 c 2.65,0.45 5.29,1.000547 8,1.310547 7.25,0.76 14.51953,1.320078 21.76953,2.080078 6.93,0.72 14.00071,1.088125 20.72071,2.578125 a 113.38,113.38 0 0 0 14.25976,2.580078 c 5.79,0.51 11.55008,1.260781 17.33008,1.800781 9.57,0.91 19.1507,1.719375 28.7207,2.609375 a 36.37,36.37 0 0 1 3.70899,0.75 V 53.8125 l -33.09961,-1.189453 c 0.17,0.89 0.32,1.640781 0.5,2.550781 l 30.23047,4.400391 0.0605,0.689453 -3.26172,1.949219 34.72071,7.570312 c 0.07,1.17 0.1407,2.390625 0.2207,3.640625 l 12.13867,5.150391 c -2.5,3 -6.9389,0.56914 -10.1289,3.36914 l 6.34961,2.5 -7.34961,1.240235 -0.0703,0.669922 7.85938,1.699218 -4.58984,1.589844 -0.0586,0.800781 8.1582,2 c -0.29,1.89 -2.05898,1.699922 -3.45898,1.919922 -1.4,0.22 -2.83977,0.229844 -4.25977,0.339844 l -0.34961,1 a 35.07,35.07 0 0 0 4.58008,2.650391 37.94,37.94 0 0 0 5.33985,1.349609 l -0.0899,0.720705 h -14.86132 l -0.28907,0.67969 a 13.56,13.56 0 0 0 3,1.44921 c 4.44,0.94 8.90914,1.70032 13.36914,2.57032 a 15.48,15.48 0 0 1 2.13086,0.82031 c -2.35,2 -3.69984,4.15978 -1.58984,7.25976 h -6.2304 c -0.27,1.66 -0.54102,3.26055 -0.79102,4.81055 l -6.19921,2.83985 c 3.07,3.21 7.07109,3.84 10.87109,5 -1.17,2.7 -3.18,2.83984 -5,2.83984 -2.85,0 -5.69102,-0.40078 -8.54102,-0.55078 a 5.49,5.49 0 0 0 -3.10937,0.71094 5.11,5.11 0 0 0 1.57031,0.83984 c 2.18,0.3 4.27867,0.53008 4.13867,3.58008 0,0.39 0.86133,0.8407 1.36133,1.2207 2.47,1.9 2.25992,4.13 -0.83008,5 -3.09,0.87 -6.24109,0.92891 -9.37109,1.37891 -1.43,0.21 -2.8493,0.47953 -4.5293,0.76953 1.6,3.8 5.94055,2.65086 7.81055,5.13086 -0.14,4.7 -4.59172,3.64937 -7.26172,5.60937 l 2.57031,3.23047 c -0.88,2.95 -1.70898,6.04922 -5.45898,6.94922 -0.61,0.15 -1.42078,0.63039 -1.80078,0.40039 -3.45,-2.11 -7.00039,1.28055 -10.40039,-0.18945 -0.14,-0.06 -0.4586,0.31054 -1.13868,0.81054 l 11,5.66016 c -0.1,0.8 -0.24085,1.89 -0.38085,3 -4.16,0.68 -7.45891,-3.12109 -11.37891,-1.62109 l -0.40039,0.83984 4.50976,2.80078 c -3.84,2.16 -7.80039,-1.83054 -11.90039,-0.0605 4,3.42 9.47993,3.12977 14.66993,5.75977 h -5.67969 c 0.36,1 0.57031,1.63008 0.82031,2.33008 a 5.33,5.33 0 0 1 -0.83008,0.16992 c -0.52,0 -1.4,-0.15 -1.5,0 -1.39,3 -4.19117,2.00023 -6.45117,2.24023 -4.21,0.36001 -8.43992,0.46985 -12.66992,0.58985 a 18.68,18.68 0 0 1 -3.11914,-0.46875 c -9.3,-1.31 -18.59992,-2.71086 -27.91992,-3.88086 -9.32,-1.17 -18.50047,-1.95898 -27.73047,-2.95898 -0.21,0 -0.43063,-7.9e-4 -0.64063,-0.0508 -8.58,-0.22 -17.15828,-0.48109 -25.73828,-0.62109 a 18.33,18.33 0 0 0 -4,0.83008 l -2.61133,-0.58008 -0.0586,-0.0684 c -2.79,-0.69 -5.54133,-1.77 -8.36133,-2 -7.58,-0.66 -15.18883,-1.08086 -22.79883,-1.38086 -5.26,-0.2 -10.54054,-0.12 -15.81054,0 -5.27,0.12 -10.3708,0.41063 -15.55078,0.64063 a 3.76,3.76 0 0 0 -3.5,2.19921 4.7,4.7 0 0 1 -3.17969,2.07032 c -2.79,0.31 -5.63899,0.0604 -8.45899,0.15039 -5.4,0.17 -10.80164,0.29969 -16.18164,0.67969 -3.24,0.24 -6.42992,1.00062 -9.66992,1.39062 -4.61,0.48 -9.23937,0.78891 -13.85937,1.12891 -3.59,0.27 -7.17977,0.42093 -10.75977,0.71093 a 8.15,8.15 0 0 0 -2.06055,0.83008 l 1,1.51953 a 3.49,3.49 0 0 1 -0.82031,0.31055 c -4.49,0.58 -8.99828,1.18922 -13.48828,1.69922 -5,0.57 -10.08086,1.05078 -15.13086,1.55078 -2,0.2 -4,0.27859 -6,0.55859 -3.58,0.51 -7.11,1.23071 -10,3.72071 a 2.27,2.27 0 0 1 -1.16992,0.44922 c -5.22667,0.66666 -10.45922,1.33333 -15.69922,2 a 11,11 0 0 1 -1.89063,-0.21875 c -0.43,-2.18 -0.85937,-4.49125 -1.35937,-6.78125 -0.25,-1.12 -0.62,-2.21875 -1,-3.71875 1.86,-3.19 5.50922,-4.25047 9.19922,-5.23047 3.08,-0.82 5.99953,-1.68078 7.51953,-5.05078 0.36,-0.81 2.16961,-0.99868 3.34961,-1.38868 1.65,-0.52 3.33,-0.92109 5,-1.37109 l -0.13867,-0.84961 c -4.37,0 -8.72985,0.06 -13.08985,0 a 51.76,51.76 0 0 1 -5.81054,-0.59961 c -1.44,-0.2 -2.91086,-0.91976 -4.30078,-0.75976 -7.54001,0.86 -15.2504,0.26015 -22.6504,2.41015 -2.12,0.62 -4.22812,1.26612 -6.32812,1.93946 -5.38,1.72 -10.77133,3.39023 -16.11133,5.24023 -1.65,0.57 -3.04898,1.99914 -4.70898,2.36914 -3.06,0.69 -6.22086,0.89031 -9.63086,1.32031 -1.78,4.15 -5.44922,4.15071 -9.44922,3.47071 -3.42,-0.59 -6.91079,-0.90133 -10.30078,-1.61133 a 40.52,40.52 0 0 1 -6.000002,-2.2793 l 3.220702,-1.86914 v -0.80078 c -3.439999,-0.67 -6.869843,-1.76016 -10.339843,-1.91016 a 97,97 0 0 0 -23,1.55078 c -1,0.2 -2.071485,-0.20992 -3.771485,-0.41992 3.060001,-4.12 7.661485,-2.56156 10.521485,-4.60156 l 0.830078,-5.32812 -5.941406,-0.41016 -0.160157,-0.83984 c 3.320001,-2.39 7.390391,-3.00188 10.650391,-3.92188 l 2.660156,-5.33984 c -3.17,-1.73 -6.828828,-0.77868 -10.298828,-0.63868 l -2.580078,-5.30078 c 3.41,-1.91 7.498281,-1.50039 11.738281,-2.15039 -2,-2.71 -1.149609,-4.71945 1.400391,-6.18945 -0.61,-2.83 -2.350391,-2.38031 -4.150391,-1.82031 -2.42,0.76 -4.849296,1.5 -7.279296,2.25 l -0.34961,-1.09961 6.330078,-2.10938 c -1.51,-2.15 -1.52,-2.12976 -5,-1.50976 -2,0.35 -3.919609,0.62 -6.349609,1 l 1.208984,-2.47071 -2.599609,-0.40039 0.11914,-1.84961 -3.929687,-2.26953 v -0.87109 a 13.56,13.56 0 0 1 2.820312,-1.41992 c 5.000001,-1.13 9.92086,-2.12922 14.88086,-3.19922 a 13.89,13.89 0 0 0 1.949219,-0.72071 l -0.779297,-2.0996 10.21875,-5.2793 c -1.18,-1.36 -2.839453,-2.38117 -1.439453,-3.70117 -2.94,-3.54 -6.87,-0.6 -11,-2 2.63,-2.49 4.860781,-4.56969 7.050781,-6.67969 1.34,-1.29 2.57,-2.70016 4,-3.91016 a 9.15,9.15 0 0 1 2.929687,-1.68945 c 3.91,-1.29 7.878829,-2.41945 11.798826,-3.689453 1.38,-0.45 2.68071,-1.149922 4.47071,-1.919922 l -3.56055,-1.560547 v -0.541016 h 6.58984 l 0.48047,0.28125 -0.0898,-0.691406 c 1.68,-0.68 3.33078,-1.45 5.05078,-2 a 13.56,13.56 0 0 1 2.83984,-0.330078 l 1.07031,-3.429687 c -2.23,0 -4.17109,-0.06 -6.12109,0 -2.22,0.07 -3.99922,-0.41 -4.44922,-3 L 49.18558,85.34375 c 4.26,-1.59 7.79882,-2.799922 11.79882,-2.669922 3.64,0.11 7.3,-0.609922 10.5,-0.919922 0.52,-0.74 0.72,-0.899844 0.75,-1.089844 0.81,-4.789996 0.80993,-4.650627 5.66993,-4.890624 a 31.58,31.58 0 0 0 8.78125,-1.890626 4.14,4.14 0 0 0 -1.16016,-0.410156 c -8.61,-0.27 -17.08102,0.45 -25.29102,3.25 -2.62,0.89 -6.37921,0.08024 -7.94921,-1.759765 0.11,-2.85 2.74046,-3.099297 4.48046,-4.279297 l 0.47852,0.289062 -0.0898,-0.689453 3.38086,-2.298828 0.67968,2.228516 -4.73047,2 c 3.33,1.55 3.71024,1.411328 5.24024,-1.388672 l 3.80078,-1.839844 c -0.24,-4.9 4.84922,-3.311094 6.94922,-6.371094 H 67.6446 a 8.84,8.84 0 0 1 -3.10937,-0.40039 2.44,2.44 0 0 1 -1.24024,-1.919922 c 0.06,-0.57 0.99992,-1.31 1.66992,-1.5 a 14.51,14.51 0 0 1 3.13086,-0.289063 c 1,-1.46 1.5286,-2.889765 2.5586,-3.759765 1.03,-0.87 2.42007,-1.059766 4.33007,-1.759766 -7.29,-2.71 -13.99867,0.559766 -20.63867,-1.240234 l 15.25977,-2.681641 -0.16992,-1 c -9.31,0.25 -18.39008,2.511094 -27.580081,3.871094 l -0.291016,-0.759766 c 1.72,-0.89 3.349688,-2.179609 5.179687,-2.599609 8.25,-1.85 16.50984,-3.720078 24.83984,-5.080078 10.4,-1.79 20.88035,-3.389844 31.4004,-4.339844 14.64999,-1.33 28.44039,-6.241641 42.65039,-9.431641 5,-1.11 9.90929,-2.208672 14.77929,-3.638672 3.08,-0.91 5.37,-0.340078 7.25,2.169922 v 0.650391 l 0.38086,-0.261719 c -0.66,1 -1.32062,2.000078 -2.14062,3.330078 a 6.85,6.85 0 0 0 2.08008,0.390625 c 5.11,-0.84 10.18054,-1.999375 15.31054,-2.609375 7.33,-0.94 14.69078,-1.600312 22.05078,-2.320312 3.43,-0.34 6.87836,-0.729297 10.31836,-0.779297 2.29,0 4.5911,0.818984 6.8711,0.708984 10.76,-0.49 21.51906,-1.24 32.28906,-1.75 2.94,-0.14 5.90133,0.27961 8.86133,0.34961 3.92,0.11 7.94,0.700312 11.75,0.07031 2.4125,-0.4 4.80547,-0.568359 7.1875,-0.583984 z m 137.24218,14.253906 c 0.07,0.05 0.17922,0.100156 0.19922,0.160156 0.02,0.06 -0.0801,0.120469 -0.0801,0.230469 h -0.25 z m 2.29883,0.791016 -0.0684,0.148437 -0.11132,-0.138672 z m 3.71094,3.769531 0.14062,0.128906 -0.16992,0.06055 z m 2.24023,0.09961 0.57032,0.800781 -0.92969,-0.15039 z m -347.13086,7.439453 -1.38867,1 0.41992,0.621094 1.41993,-0.880859 z m 4.41016,0.431641 -0.19922,0.07813 0.19922,0.130859 z m 308.2207,0.689453 0.0899,0.199219 0.11914,-0.199219 z m 1.87891,1.740234 a 2.86,2.86 0 0 0 -0.5293,0.199219 c 0.06,0.08 0.13946,0.240469 0.18946,0.230469 a 2.86,2.86 0 0 0 0.53125,-0.201172 c -0.06,-0.08 -0.14141,-0.238515 -0.19141,-0.228516 z m -315.22852,1.978516 -0.12109,0.191406 h 0.20117 z m 1.03321,6.53125 a 5.62,5.62 0 0 0 -3.50391,1.298828 l -10.68945,5.621094 c 4.38,-0.19 8.63906,-0.620625 12.28906,-3.390625 l -1.13867,-1.640625 5.34961,-0.759766 -0.11133,-0.71875 A 5.62,5.62 0 0 0 81.29883,63.173829 Z M 94.22461,73.853517 V 74.0625 l 0.20117,-0.07813 z m 354.16016,3.990234 -0.10938,0.759766 c 1.35,0.93 2.7093,2.080547 4.5293,-0.189454 z m -383.9004,0.390625 0.16993,0.779297 -5.19922,1.259766 -0.22071,-1.039063 z m 8.71094,3.279297 v 0.208984 l 0.19922,-0.08008 z m 377.53907,1.708984 -0.24024,0.810547 3.86133,1.339844 0.42969,-1.070313 z m 18.21093,16.140625 -0.20117,0.08008 0.20117,0.13086 z M 33.005859,143.19336 a 3.47,3.47 0 0 0 -0.5,0.19922 c 0.06,0.08 0.139688,0.2307 0.179688,0.2207 a 3,3 0 0 0 0.490234,-0.19922 c -0.06,-0.08 -0.129922,-0.2307 -0.169922,-0.2207 z m -3.130859,0.0996 -0.589844,0.56055 0.539063,0.41992 0.371093,-0.64063 z m 5.099609,0.63086 v 0.21875 l 0.189453,-0.0898 z m -9.25,21.65039 a 7.52,7.52 0 0 0 -1.208984,0.41016 l 1.449219,0.56835 a 3,3 0 0 0 0.220703,-0.75 c 0,-0.07 -0.310938,-0.23851 -0.460938,-0.22851 z m -2.949218,0.58008 a 3.5,3.5 0 0 0 -0.541016,0.19922 c 0.07,0.08 0.141406,0.25023 0.191406,0.24023 a 3.39,3.39 0 0 0 0.517578,-0.2207 c -0.0584,-0.0917 -0.13044,-0.22814 -0.167968,-0.21875 z m -3.150391,0.76953 0.08008,0.19922 0.128906,-0.19922 z m 401.7207,4.77929 -0.29101,0.68946 1.20117,0.51172 0.31836,-0.77149 z m -295,0.95118 0.2793,0.75976 -1.60938,0.41992 -0.1914,-0.58984 z m 86.75977,4.1582 -1.29102,0.4707 0.21094,0.5293 1.25977,-0.5293 z m -165.9707,0.17188 -0.11915,0.16992 h 0.18946 z m 149.75976,1.1289 -0.0703,0.56055 h 6.43164 v -0.56055 z m -140.09961,0.18945 -0.25,0.0899 v 0.25 c 0,0.05 0.16,0.0601 0.25,0.0801 z m 41.67969,0.98047 c 0.08,0 0.21023,-1.5e-4 0.24023,0.0899 0.03,0.09 0,0.16 0,0.25 l -0.30078,-0.0801 z m -29.04883,0.91016 -0.11133,0.16992 h 0.17969 z m -19.11133,1.25 -0.1289,0.19922 h 0.20898 z m 13.44727,0.90234 c -1.52625,-0.0291 -2.97922,0.35985 -3.88672,2.52735 0.94,-0.1 1.88008,-0.22055 2.83008,-0.31055 l 4.20898,-0.39844 c -0.71,-0.78 -1.11914,-1.65117 -1.61914,-1.70117 -0.5075,-0.0525 -1.02445,-0.1075 -1.5332,-0.11719 z m 107.66406,3.13868 -5.89062,0.88867 0.16015,1 5.86914,-0.88867 z m -125.26172,1.93945 c 0.15,0.03 0.21031,0.26992 0.32031,0.41992 l -0.3789,0.41016 -0.45117,-0.61133 c 0.17,-0.08 0.35977,-0.24875 0.50976,-0.21875 z m -2.759763,2.85937 5.130863,1 c -2.37,1.93 -4.160863,1.62 -5.130863,-1 z m -3.419922,0.10938 0.09961,0.21094 -0.238281,-0.0293 z"
     id="rect4660"
     inkscape:connector-curvature="0" />
  <g
     style="fill:#ff0000;fill-opacity:1"
     data-name="Capa 1"
     id="Capa_1-2"
     transform="translate(-50.015071,41.483449)">
    <path
       style="fill:#ff0000;fill-opacity:1"
       id="path38"
       d="m 316.37,163.56 -0.44,0.36 0.38,-0.43 z"
       class="cls-1"
       inkscape:connector-curvature="0" />
    <path
       style="fill:#ff0000;fill-opacity:1"
       d="m 318.98,164.14 -0.02,-0.01 -0.09,0.09 z"
       id="polygon50"
       inkscape:connector-curvature="0" />
  </g>
</svg>
