<?xml version="1.0" encoding="UTF-8" standalone="no"?>
<!-- Created with Inkscape (http://www.inkscape.org/) -->

<svg
   xmlns:dc="http://purl.org/dc/elements/1.1/"
   xmlns:cc="http://creativecommons.org/ns#"
   xmlns:rdf="http://www.w3.org/1999/02/22-rdf-syntax-ns#"
   xmlns:svg="http://www.w3.org/2000/svg"
   xmlns="http://www.w3.org/2000/svg"
   xmlns:sodipodi="http://sodipodi.sourceforge.net/DTD/sodipodi-0.dtd"
   xmlns:inkscape="http://www.inkscape.org/namespaces/inkscape"
   width="10.315725mm"
   height="8.3785458mm"
   viewBox="0 0 10.315726 8.3785457"
   version="1.1"
   id="svg8"
   inkscape:version="0.92.3 (2405546, 2018-03-11)"
   sodipodi:docname="cerebro.svg">
  <defs
     id="defs2" />
  <sodipodi:namedview
     id="base"
     pagecolor="#ffffff"
     bordercolor="#666666"
     borderopacity="1.0"
     inkscape:pageopacity="0.0"
     inkscape:pageshadow="2"
     inkscape:zoom="1.4"
     inkscape:cx="-18.39186"
     inkscape:cy="138.13152"
     inkscape:document-units="mm"
     inkscape:current-layer="layer1"
     showgrid="false"
     inkscape:window-width="1920"
     inkscape:window-height="1017"
     inkscape:window-x="-8"
     inkscape:window-y="-8"
     inkscape:window-maximized="1" />
  <metadata
     id="metadata5">
    <rdf:RDF>
      <cc:Work
         rdf:about="">
        <dc:format>image/svg+xml</dc:format>
        <dc:type
           rdf:resource="http://purl.org/dc/dcmitype/StillImage" />
        <dc:title />
      </cc:Work>
    </rdf:RDF>
  </metadata>
  <g
     inkscape:label="Capa 1"
     inkscape:groupmode="layer"
     id="layer1"
     transform="translate(-83.905068,-70.486621)">
    <path
       style="fill:#000000;stroke-width:0.08466667"
       d="m 88.591368,78.827897 c -0.319679,-0.0804 -0.576687,-0.217337 -0.710499,-0.378571 -0.09068,-0.109258 -0.140647,-0.109846 -0.392484,-0.0046 -0.575595,0.2405 -1.202937,0.0686 -1.520963,-0.416774 -0.09147,-0.139601 -0.188784,-0.192828 -0.299575,-0.163856 -0.436312,0.114099 -1.044684,-0.309825 -1.18328,-0.824527 -0.04858,-0.180422 -0.205471,-0.445179 -0.348642,-0.58835 -0.23732,-0.23732 -0.256037,-0.295668 -0.21192,-0.660614 0.02662,-0.220166 0.04776,-0.576673 0.04699,-0.792237 -0.0012,-0.329975 0.04194,-0.435277 0.272759,-0.666094 0.150787,-0.150788 0.279696,-0.336367 0.286464,-0.412399 0.0523,-0.587485 0.359414,-1.027239 0.717411,-1.027239 0.105196,0 0.161948,-0.09289 0.199242,-0.326114 0.06398,-0.400092 0.397225,-0.751821 0.78043,-0.82371 0.171641,-0.0322 0.303824,-0.115863 0.334183,-0.211515 0.09038,-0.284766 0.460138,-0.501327 0.855967,-0.501327 0.20327,0 0.369581,-0.02989 0.369581,-0.06641 0,-0.03653 0.110654,-0.131777 0.245897,-0.211667 0.272839,-0.16117 0.780303,-0.191066 1.024531,-0.06036 0.102649,0.05494 0.176644,0.05575 0.209676,0.0023 0.02808,-0.04543 0.192312,-0.120246 0.364971,-0.166265 0.421786,-0.112417 0.943027,0.0143 1.177698,0.286303 0.152719,0.177014 0.261602,0.216099 0.602018,0.216099 0.299749,0 0.499548,0.05698 0.716842,0.204442 0.165694,0.112443 0.320858,0.184845 0.344808,0.160895 0.02395,-0.02395 0.182398,0.0023 0.352106,0.05829 0.311999,0.102969 0.633178,0.496391 0.633804,0.776364 1.69e-4,0.07791 0.114616,0.255954 0.254316,0.395654 0.192039,0.192038 0.254657,0.33304 0.256693,0.578012 0.0015,0.178207 0.05863,0.39797 0.127,0.488362 0.178282,0.23571 0.159703,0.91006 -0.0319,1.157733 -0.08591,0.111055 -0.18085,0.328949 -0.210975,0.48421 -0.07416,0.382238 -0.336807,0.731467 -0.646625,0.859798 -0.187533,0.07768 -0.256197,0.162268 -0.256197,0.315618 0,0.471531 -0.502459,0.955292 -0.992215,0.955292 -0.19765,0 -0.274029,0.05789 -0.385909,0.292507 -0.176388,0.36989 -0.577274,0.581059 -1.119542,0.589727 -0.321228,0.0051 -0.494808,0.0612 -0.719667,0.232469 -0.330269,0.25155 -0.759775,0.34496 -1.143,0.248581 z m 1.036793,-0.738243 0.274794,-0.313724 0.348609,0.115051 c 0.315206,0.104028 0.378114,0.09925 0.65654,-0.04982 0.271428,-0.145332 0.311042,-0.208056 0.334182,-0.529135 l 0.02625,-0.364259 0.367553,0.05512 c 0.644594,0.09666 0.908188,-0.106867 0.925994,-0.714992 0.0075,-0.256942 0.04286,-0.303159 0.278458,-0.364157 0.396301,-0.102608 0.619159,-0.432487 0.619159,-0.91649 0,-0.467992 -0.172188,-0.728277 -0.550333,-0.831899 -0.325004,-0.08906 -0.804333,0.03482 -0.804333,0.207871 0,0.150031 -0.447709,0.626067 -0.588812,0.626067 -0.19679,0 -0.181529,-0.261977 0.0299,-0.513246 0.144203,-0.171375 0.220245,-0.362734 0.220245,-0.554241 0,-0.323921 0.212488,-0.483694 0.372077,-0.27977 0.0629,0.08038 0.224,0.111188 0.491339,0.09396 0.470097,-0.03029 0.879414,0.152135 1.016512,0.453031 0.115101,0.25262 0.236739,0.270201 0.236739,0.03422 0,-0.09536 -0.096,-0.262348 -0.213338,-0.371091 -0.18495,-0.171406 -0.201551,-0.228721 -0.124752,-0.430719 0.165247,-0.434631 -0.334894,-0.86237 -0.749125,-0.64068 -0.268245,0.14356 -0.436785,0.111242 -0.436785,-0.08376 0,-0.124665 0.09801,-0.216786 0.337805,-0.3175 0.185794,-0.07803 0.338194,-0.188625 0.338667,-0.24576 0.0015,-0.18397 -0.385415,-0.374312 -0.634062,-0.311906 -0.188386,0.04728 -0.264433,0.01383 -0.424315,-0.186637 -0.164013,-0.205647 -0.253486,-0.243025 -0.566209,-0.236539 -0.206538,0.0043 -0.477274,0.07706 -0.609882,0.163953 -0.215485,0.14119 -0.234431,0.192063 -0.196585,0.527836 0.03189,0.2829 0.01096,0.383452 -0.08768,0.421303 -0.178725,0.06858 -0.359075,-0.204803 -0.359075,-0.544311 0,-0.200361 -0.03858,-0.280151 -0.135466,-0.280151 -0.170245,0 -0.7112,0.532981 -0.7112,0.700716 0,0.09048 -0.129514,0.135722 -0.469178,0.16389 -0.463461,0.03843 -0.875532,0.248521 -0.954986,0.486885 -0.02645,0.07934 0.01562,0.09954 0.139715,0.06709 0.197507,-0.05165 0.428274,0.152576 0.30296,0.268115 -0.04227,0.03897 -0.229245,0.118841 -0.415512,0.177497 -0.505543,0.159197 -0.807283,0.406952 -0.985043,0.80881 -0.286102,0.64678 0.06688,1.0372 0.843858,0.933352 0.477507,-0.06382 0.828955,-0.276943 0.953825,-0.578406 0.06161,-0.148746 0.152586,-0.231797 0.236422,-0.215833 0.221495,0.04218 0.204306,0.361683 -0.03474,0.645776 -0.208045,0.247248 -0.213666,0.275899 -0.08903,0.453848 0.309838,0.442356 -0.0058,0.66067 -0.359428,0.248567 -0.220577,-0.257083 -0.237852,-0.262005 -0.59264,-0.168832 -0.344721,0.09053 -0.606227,0.05485 -1.083466,-0.147832 -0.05183,-0.02201 -0.143991,0.08009 -0.204798,0.226886 -0.08676,0.209457 -0.08868,0.301945 -0.0089,0.429676 0.08789,0.140739 0.06118,0.200935 -0.19737,0.444779 -0.196847,0.185651 -0.299019,0.359082 -0.299019,0.507568 0,0.324887 0.211761,0.784219 0.4106,0.890635 0.404508,0.216486 1.198067,0.02154 1.198067,-0.29432 0,-0.06721 0.0762,-0.122199 0.169333,-0.122199 0.154327,0 0.210996,0.09127 0.176389,0.284079 -0.02166,0.120702 0.189789,0.327869 0.458578,0.449283 0.404124,0.182546 0.805424,0.08319 1.121493,-0.277654 z m -0.814782,-0.195315 c -0.204228,-0.126219 -0.07146,-0.538639 0.24096,-0.748501 0.374791,-0.251758 0.891696,-0.238749 0.891696,0.02244 0,0.131786 -0.06571,0.175494 -0.296334,0.197119 -0.312083,0.02926 -0.592666,0.220372 -0.592666,0.403673 0,0.148546 -0.11245,0.206358 -0.243656,0.125267 z m -1.873011,-0.799181 c 0,-0.651636 0.554643,-1.025 1.222551,-0.822973 0.664968,0.201137 0.78286,0.203017 0.970402,0.01547 0.09774,-0.09774 0.177714,-0.274158 0.177714,-0.392037 0,-0.199417 0.201643,-0.374254 0.308451,-0.267446 0.02593,0.02593 0.04715,0.186502 0.04715,0.356822 0,0.222208 -0.06554,0.378081 -0.232033,0.551865 -0.300381,0.31353 -0.601849,0.373988 -1.063405,0.213261 -0.204873,-0.07134 -0.458221,-0.130268 -0.562996,-0.130946 -0.267912,-0.0017 -0.529167,0.290264 -0.529167,0.591435 0,0.197555 -0.03763,0.254 -0.169333,0.254 -0.143463,0 -0.169333,-0.05645 -0.169333,-0.369455 z m 3.307713,-0.127871 c -0.04971,-0.09288 -0.09038,-0.339907 -0.09038,-0.548945 0,-0.66407 0.397926,-0.982809 1.397,-1.118999 0.513932,-0.07006 0.707811,-0.161283 0.938487,-0.441588 0.19221,-0.233563 0.373847,-0.196782 0.373847,0.0757 0,0.256853 -0.366092,0.56697 -0.797561,0.675615 -0.441854,0.11126 -0.475964,0.185184 -0.176106,0.381659 0.233005,0.152671 0.275618,0.330557 0.09572,0.39959 -0.162455,0.06234 -0.619696,-0.233282 -0.686534,-0.443867 -0.07261,-0.228789 -0.2348,-0.221577 -0.519244,0.02309 -0.227508,0.195694 -0.246832,0.291145 -0.182156,0.899757 0.02823,0.265669 -0.225628,0.336119 -0.353074,0.09798 z m -0.525084,-1.809841 c -0.0063,-0.05821 -0.0031,-0.264594 0.007,-0.458635 0.04511,-0.86494 -0.918658,-0.96251 -1.746913,-0.176853 -0.27192,0.257936 -0.534747,0.274196 -0.534747,0.03308 0,-0.166135 0.550707,-0.635446 0.968131,-0.82504 1.049821,-0.476827 2.041214,0.30983 1.658631,1.3161 -0.0847,0.222787 -0.331766,0.300909 -0.352133,0.111345 z m 0.911024,-0.870601 c -0.02914,-0.07595 -0.05299,-0.246149 -0.05299,-0.378232 0,-0.132083 -0.02367,-0.301826 -0.05259,-0.377207 -0.07149,-0.186308 -0.476348,-0.384793 -0.784872,-0.384793 -0.306364,0 -0.426803,-0.15622 -0.230885,-0.299478 0.287628,-0.210318 1.036148,0.02052 1.309748,0.403917 0.108386,0.151882 0.122845,0.15266 0.275166,0.01481 0.08842,-0.08002 0.16077,-0.236731 0.16077,-0.348243 0,-0.250124 0.179889,-0.609026 0.40933,-0.816667 0.316518,-0.286446 0.495631,0.05603 0.18944,0.362224 -0.08978,0.08978 -0.189146,0.336046 -0.220821,0.547266 -0.04496,0.29983 -0.119385,0.431169 -0.339422,0.599 -0.198557,0.151446 -0.289667,0.295998 -0.308347,0.489207 -0.02894,0.299287 -0.264011,0.424074 -0.354527,0.188196 z m -4.908864,2.842759 c 0.0074,-0.197886 0.09311,-0.447326 0.210332,-0.611943 0.108833,-0.152841 0.206313,-0.409758 0.216623,-0.570928 0.01031,-0.16117 0.09664,-0.398387 0.191835,-0.527149 0.0952,-0.128763 0.173087,-0.249414 0.173087,-0.268113 0,-0.0187 -0.144411,0.0045 -0.320914,0.05166 -0.573265,0.153013 -1.16276,-0.08825 -1.444133,-0.59103 -0.06852,-0.122442 -0.102385,-0.127598 -0.216426,-0.03295 -0.179416,0.148903 -0.172178,0.540923 0.01297,0.702621 0.08149,0.07117 0.293167,0.155399 0.470389,0.187178 0.177223,0.03178 0.396298,0.131854 0.486834,0.22239 0.195286,0.195287 0.217585,0.653139 0.04331,0.889262 -0.171025,0.231721 -0.347608,0.03958 -0.314696,-0.342421 0.02239,-0.25991 -6.1e-4,-0.296369 -0.213957,-0.339135 -0.131476,-0.02635 -0.350835,-0.08427 -0.487464,-0.1287 -0.136629,-0.04443 -0.268965,-0.06023 -0.294078,-0.03512 -0.09363,0.09363 0.214022,0.496553 0.416767,0.545839 0.159544,0.03878 0.20633,0.101023 0.193578,0.257516 -0.04196,0.514982 0.245495,0.926446 0.646615,0.92556 0.193875,-4.32e-4 0.218189,-0.03589 0.229324,-0.33453 z m 0.554686,-2.395491 c 0.07361,-0.05821 0.178689,-0.247465 0.233504,-0.420571 0.06048,-0.190992 0.262819,-0.461429 0.514636,-0.687834 0.518333,-0.466026 0.638143,-0.918187 0.342788,-1.29367 -0.166762,-0.212004 -0.170798,-0.24314 -0.04727,-0.364774 0.122988,-0.121107 0.157468,-0.108079 0.386068,0.145877 0.13806,0.153373 0.29284,0.253014 0.343954,0.221423 0.05111,-0.03159 0.285184,-0.100129 0.520153,-0.152307 0.559261,-0.124193 0.654924,-0.334211 0.133332,-0.292716 -0.321611,0.02559 -0.369635,0.0077 -0.369635,-0.137889 0,-0.233685 0.392916,-0.362957 0.723696,-0.238101 0.200355,0.07563 0.304948,0.06866 0.510791,-0.03403 0.142365,-0.07102 0.407616,-0.136725 0.589447,-0.146009 0.432202,-0.02207 0.507817,-0.111717 0.262186,-0.310853 -0.318458,-0.258179 -0.824566,-0.179311 -1.086328,0.169284 -0.08323,0.110845 -0.127652,0.115722 -0.254,0.02789 -0.488597,-0.339657 -0.887808,-0.299439 -1.041548,0.10493 -0.08754,0.230243 -0.249403,0.267224 -0.524717,0.119881 -0.251738,-0.134727 -0.618861,0.152638 -0.618861,0.484411 0,0.235065 -0.01479,0.243893 -0.408737,0.243893 -0.502928,0 -0.670972,0.179253 -0.633018,0.675245 0.0254,0.331894 0.02111,0.337342 -0.307668,0.391427 -0.358908,0.05904 -0.640243,0.323605 -0.640243,0.602078 0,0.248962 0.250544,0.732227 0.453209,0.874179 0.216747,0.151816 0.73629,0.162134 0.918266,0.01824 z m -0.667546,-0.624314 c -0.03299,-0.08598 0.0066,-0.170682 0.105616,-0.226111 0.08711,-0.04875 0.250385,-0.180642 0.362844,-0.293101 0.181103,-0.181103 0.199064,-0.256862 0.157159,-0.662889 -0.04231,-0.409965 -0.03038,-0.458418 0.112924,-0.458418 0.547533,0 0.386074,1.256063 -0.208029,1.618346 -0.320424,0.195394 -0.461776,0.201302 -0.530514,0.02217 z"
       id="path825"
       inkscape:connector-curvature="0" />
  </g>
</svg>
